<svg width="28" height="28" viewBox="0 0 28 28" fill="none" xmlns="http://www.w3.org/2000/svg">
<path d="M11.1928 4.59667C11.2978 3.96433 11.8462 3.5 12.4878 3.5H15.513C16.1547 3.5 16.703 3.96433 16.808 4.59667L17.0565 6.09117C17.13 6.5275 17.4217 6.8915 17.809 7.10617C17.8953 7.15283 17.9805 7.203 18.0657 7.25433C18.4437 7.483 18.9057 7.55417 19.3198 7.399L20.7397 6.867C21.0306 6.75758 21.351 6.75498 21.6437 6.85966C21.9364 6.96435 22.1824 7.16953 22.338 7.43867L23.85 10.0602C24.0052 10.3293 24.0599 10.6448 24.0044 10.9505C23.9489 11.2562 23.7867 11.5323 23.5467 11.7297L22.3765 12.6945C22.0347 12.9745 21.8655 13.4097 21.8737 13.8518C21.8755 13.951 21.8755 14.0502 21.8737 14.1493C21.8655 14.5903 22.0347 15.0243 22.3753 15.3043L23.5478 16.2703C24.0425 16.6787 24.1708 17.3833 23.8512 17.9387L22.3368 20.5602C22.1815 20.8292 21.9357 21.0345 21.6433 21.1394C21.3508 21.2443 21.0306 21.242 20.7397 21.133L19.3198 20.601C18.9057 20.4458 18.4448 20.517 18.0645 20.7457C17.9799 20.7971 17.8943 20.8469 17.8078 20.895C17.4217 21.1085 17.13 21.4725 17.0565 21.9088L16.808 23.4022C16.703 24.0357 16.1547 24.5 15.513 24.5H12.4867C11.845 24.5 11.2967 24.0357 11.1917 23.4033L10.9432 21.9088C10.8708 21.4725 10.5792 21.1085 10.1918 20.8938C10.1053 20.8461 10.0198 20.7967 9.93517 20.7457C9.556 20.517 9.09517 20.4458 8.67983 20.601L7.26 21.133C6.96918 21.2421 6.64909 21.2445 6.35665 21.1399C6.0642 21.0352 5.81836 20.8302 5.66283 20.5613L4.14967 17.9398C3.99443 17.6707 3.93972 17.3552 3.99527 17.0495C4.05081 16.7438 4.21301 16.4677 4.453 16.2703L5.62433 15.3055C5.965 15.0255 6.13417 14.5903 6.126 14.1482C6.12418 14.049 6.12418 13.9498 6.126 13.8507C6.13417 13.4097 5.965 12.9757 5.62433 12.6957L4.453 11.7297C4.2133 11.5324 4.05129 11.2565 3.99575 10.9511C3.94022 10.6456 3.99475 10.3304 4.14967 10.0613L5.66283 7.43983C5.81822 7.17049 6.06418 6.96507 6.3569 6.86016C6.64961 6.75525 6.97007 6.75768 7.26117 6.867L8.67983 7.399C9.09517 7.55417 9.556 7.483 9.93517 7.25433C10.0192 7.203 10.1055 7.15283 10.1918 7.105C10.5792 6.8915 10.8708 6.5275 10.9432 6.09117L11.1928 4.59667V4.59667Z" stroke="white" stroke-width="1.5" stroke-linecap="round" stroke-linejoin="round"/>
<path d="M17.5 14C17.5 14.9283 17.1313 15.8185 16.4749 16.4749C15.8185 17.1313 14.9283 17.5 14 17.5C13.0717 17.5 12.1815 17.1313 11.5251 16.4749C10.8687 15.8185 10.5 14.9283 10.5 14C10.5 13.0717 10.8687 12.1815 11.5251 11.5251C12.1815 10.8687 13.0717 10.5 14 10.5C14.9283 10.5 15.8185 10.8687 16.4749 11.5251C17.1313 12.1815 17.5 13.0717 17.5 14V14Z" stroke="white" stroke-width="1.5" stroke-linecap="round" stroke-linejoin="round"/>
</svg>
