<svg width="28" height="28" viewBox="0 0 28 28" fill="none" xmlns="http://www.w3.org/2000/svg">
<path d="M18.375 10.5V6.125C18.375 5.42881 18.0984 4.76113 17.6062 4.26884C17.1139 3.77656 16.4462 3.5 15.75 3.5H8.75C8.05381 3.5 7.38613 3.77656 6.89384 4.26884C6.40156 4.76113 6.125 5.42881 6.125 6.125V21.875C6.125 22.5712 6.40156 23.2389 6.89384 23.7312C7.38613 24.2234 8.05381 24.5 8.75 24.5H15.75C16.4462 24.5 17.1139 24.2234 17.6062 23.7312C18.0984 23.2389 18.375 22.5712 18.375 21.875V17.5M14 10.5L10.5 14M10.5 14L14 17.5M10.5 14H25.375" stroke="white" stroke-width="1.5" stroke-linecap="round" stroke-linejoin="round"/>
</svg>
